<mxfile host="65bd71144e">
    <diagram id="5LzprvOZBfk8JXp44kWw" name="Page-1">
        <mxGraphModel dx="813" dy="451" grid="1" gridSize="10" guides="1" tooltips="1" connect="1" arrows="1" fold="1" page="1" pageScale="1" pageWidth="850" pageHeight="1100" math="0" shadow="0">
            <root>
                <mxCell id="0"/>
                <mxCell id="1" parent="0"/>
                <UserObject label="" lucidchartObjectId="-R-QGVAL5rap" id="2">
                    <mxCell style="html=1;jettySize=18;whiteSpace=wrap;fontSize=13;strokeColor=#E45E2D;strokeWidth=1.5;rounded=0;startArrow=none;endArrow=block;endFill=1;exitX=1.006;exitY=0.5;exitPerimeter=0;entryX=-0.006;entryY=0.5;entryPerimeter=0;" parent="1" source="42" target="3" edge="1">
                        <mxGeometry width="100" height="100" relative="1" as="geometry">
                            <Array as="points"/>
                        </mxGeometry>
                    </mxCell>
                </UserObject>
                <UserObject label="Home Page" lucidchartObjectId="mS-Qg-rf0Rh2" id="3">
                    <mxCell style="html=1;overflow=block;blockSpacing=1;whiteSpace=wrap;rounded=1;arcSize=50;fontSize=16.7;fontColor=#8b412b;spacing=3.8;strokeColor=#ef9c49;strokeOpacity=100;fillOpacity=100;fillColor=#fc9432;strokeWidth=1.5;" parent="1" vertex="1">
                        <mxGeometry x="270" y="143" width="120" height="60" as="geometry"/>
                    </mxCell>
                </UserObject>
                <UserObject label="" lucidchartObjectId="LS-QZKZBERw_" id="4">
                    <mxCell style="html=1;jettySize=18;whiteSpace=wrap;fontSize=13;strokeColor=#E45E2D;strokeWidth=1.5;rounded=0;startArrow=none;endArrow=block;endFill=1;exitX=1.006;exitY=0.5;exitPerimeter=0;entryX=-0.006;entryY=0.5;entryPerimeter=0;" parent="1" source="3" target="6" edge="1">
                        <mxGeometry width="100" height="100" relative="1" as="geometry">
                            <Array as="points"/>
                        </mxGeometry>
                    </mxCell>
                </UserObject>
                <UserObject label="Need help in your current location?" lucidchartObjectId="NS-QExdxgkR1" id="5">
                    <mxCell style="html=1;overflow=block;blockSpacing=1;whiteSpace=wrap;rhombus;fontSize=16.7;fontColor=#8b412b;spacing=3.8;strokeColor=#ef9c49;strokeOpacity=100;fillOpacity=100;rounded=1;absoluteArcSize=1;arcSize=9;fillColor=#ffdda6;strokeWidth=1.5;" parent="1" vertex="1">
                        <mxGeometry x="390" y="270" width="210" height="150" as="geometry"/>
                    </mxCell>
                </UserObject>
                <UserObject label="Easy access button for help." lucidchartObjectId="CV-QiwHFxW~S" id="6">
                    <mxCell style="html=1;overflow=block;blockSpacing=1;whiteSpace=wrap;fontSize=16.7;fontColor=#8b412b;spacing=9;strokeColor=#ef9c49;strokeOpacity=100;rounded=1;absoluteArcSize=1;arcSize=9;fillColor=#FFFADA;strokeWidth=1.5;" parent="1" vertex="1">
                        <mxGeometry x="435" y="128" width="120" height="90" as="geometry"/>
                    </mxCell>
                </UserObject>
                <UserObject label="" lucidchartObjectId="cYk~UdB6EbW7" id="7">
                    <mxCell style="html=1;jettySize=18;whiteSpace=wrap;fontSize=13.3;fontColor=#8b412b;fontStyle=1;strokeColor=#E45E2D;strokeWidth=1.5;rounded=0;startArrow=none;endArrow=block;endFill=1;exitX=0.007;exitY=0.5;exitPerimeter=0;entryX=1.006;entryY=0.5;entryPerimeter=0;" parent="1" source="5" target="9" edge="1">
                        <mxGeometry width="100" height="100" relative="1" as="geometry">
                            <Array as="points"/>
                        </mxGeometry>
                    </mxCell>
                </UserObject>
                <mxCell id="8" value="No" style="text;html=1;resizable=0;labelBackgroundColor=default;align=center;verticalAlign=middle;fontStyle=1;fontColor=#8b412b;fontSize=13.3;" parent="7" vertex="1">
                    <mxGeometry relative="1" as="geometry"/>
                </mxCell>
                <UserObject label="Check other options" lucidchartObjectId="qYk~JhX9sreV" id="9">
                    <mxCell style="html=1;overflow=block;blockSpacing=1;whiteSpace=wrap;fontSize=16.7;fontColor=#8b412b;spacing=9;strokeColor=#ef9c49;strokeOpacity=100;rounded=1;absoluteArcSize=1;arcSize=9;fillColor=#FFFADA;strokeWidth=1.5;" parent="1" vertex="1">
                        <mxGeometry x="150" y="300" width="120" height="90" as="geometry"/>
                    </mxCell>
                </UserObject>
                <UserObject label="Open Maps and Highlight hospitals, police stations and other users on the area." lucidchartObjectId="aZk~ISbF7Ihr" id="10">
                    <mxCell style="html=1;overflow=block;blockSpacing=1;whiteSpace=wrap;shape=process;fontSize=16.7;fontColor=#8b412b;spacing=3.8;strokeColor=#ef9c49;strokeOpacity=100;rounded=1;absoluteArcSize=1;arcSize=9;fillColor=#FFFADA;strokeWidth=1.5;" parent="1" vertex="1">
                        <mxGeometry x="675" y="225" width="120" height="244" as="geometry"/>
                    </mxCell>
                </UserObject>
                <UserObject label="" lucidchartObjectId="h1k~bA3l_j.g" id="11">
                    <mxCell style="html=1;jettySize=18;whiteSpace=wrap;fontSize=13.3;fontColor=#8b412b;fontStyle=1;strokeColor=#E45E2D;strokeWidth=1.5;rounded=0;startArrow=none;endArrow=block;endFill=1;exitX=0.993;exitY=0.5;exitPerimeter=0;entryX=-0.006;entryY=0.5;entryPerimeter=0;" parent="1" source="5" target="10" edge="1">
                        <mxGeometry width="100" height="100" relative="1" as="geometry">
                            <Array as="points"/>
                        </mxGeometry>
                    </mxCell>
                </UserObject>
                <mxCell id="12" value="Yes" style="text;html=1;resizable=0;labelBackgroundColor=default;align=center;verticalAlign=middle;fontStyle=1;fontColor=#8b412b;fontSize=13.3;" parent="11" vertex="1">
                    <mxGeometry relative="1" as="geometry"/>
                </mxCell>
                <UserObject label="On the same screen shows public emergency contacts (ambulance, police, fire brigrade). " lucidchartObjectId="D1k~Y8tup_0m" id="13">
                    <mxCell style="html=1;overflow=block;blockSpacing=1;whiteSpace=wrap;shape=process;fontSize=16.7;fontColor=#8b412b;spacing=3.8;strokeColor=#ef9c49;strokeOpacity=100;rounded=1;absoluteArcSize=1;arcSize=9;fillColor=#FFFADA;strokeWidth=1.5;" parent="1" vertex="1">
                        <mxGeometry x="825" y="225" width="120" height="244" as="geometry"/>
                    </mxCell>
                </UserObject>
                <UserObject label="" lucidchartObjectId="Q1k~9FPD.8u5" id="14">
                    <mxCell style="html=1;jettySize=18;whiteSpace=wrap;fontSize=13;strokeColor=#E45E2D;strokeWidth=1.5;rounded=0;startArrow=none;endArrow=block;endFill=1;exitX=1.006;exitY=0.505;exitPerimeter=0;entryX=-0.006;entryY=0.505;entryPerimeter=0;" parent="1" source="10" target="13" edge="1">
                        <mxGeometry width="100" height="100" relative="1" as="geometry">
                            <Array as="points"/>
                        </mxGeometry>
                    </mxCell>
                </UserObject>
                <UserObject label="" lucidchartObjectId="x5k~rtBbMd3t" id="15">
                    <mxCell style="html=1;jettySize=18;whiteSpace=wrap;fontSize=13;strokeColor=#E45E2D;strokeWidth=1.5;rounded=0;startArrow=none;endArrow=block;endFill=1;exitX=0.5;exitY=1.008;exitPerimeter=0;entryX=0.5;entryY=0.005;entryPerimeter=0;" parent="1" source="6" target="5" edge="1">
                        <mxGeometry width="100" height="100" relative="1" as="geometry">
                            <Array as="points"/>
                        </mxGeometry>
                    </mxCell>
                </UserObject>
                <UserObject label="SOLA PROJECT - USER REQUIREMENT" lucidchartObjectId="C6k~oewLKMpK" id="16">
                    <mxCell style="html=1;overflow=block;blockSpacing=1;whiteSpace=wrap;fontSize=16.7;fontColor=#8b412b;fontStyle=1;spacing=3.8;strokeOpacity=0;fillOpacity=0;rounded=1;absoluteArcSize=1;arcSize=9;fillColor=#ffffff;strokeWidth=2.3;" parent="1" vertex="1">
                        <mxGeometry x="345" y="28" width="420" height="48" as="geometry"/>
                    </mxCell>
                </UserObject>
                <UserObject label="New access" lucidchartObjectId="Vyl~ErU.E_EX" id="17">
                    <mxCell style="html=1;overflow=block;blockSpacing=1;whiteSpace=wrap;fontSize=16.7;fontColor=#8b412b;spacing=9;strokeColor=#ef9c49;strokeOpacity=100;rounded=1;absoluteArcSize=1;arcSize=9;fillColor=#FFFADA;strokeWidth=1.5;" parent="1" vertex="1">
                        <mxGeometry x="75" y="818" width="165" height="75" as="geometry"/>
                    </mxCell>
                </UserObject>
                <UserObject label="" lucidchartObjectId="Vyl~CLC-b5Dq" id="18">
                    <mxCell style="html=1;jettySize=18;whiteSpace=wrap;fontSize=13;strokeColor=#E45E2D;strokeWidth=1.5;rounded=0;startArrow=none;endArrow=block;endFill=1;exitX=1.004;exitY=0.5;exitPerimeter=0;entryX=-0.004;entryY=0.5;entryPerimeter=0;" parent="1" source="17" target="22" edge="1">
                        <mxGeometry width="100" height="100" relative="1" as="geometry">
                            <Array as="points"/>
                        </mxGeometry>
                    </mxCell>
                </UserObject>
                <UserObject label="" lucidchartObjectId="Vyl~CdSzlaWW" id="19">
                    <mxCell style="html=1;jettySize=18;whiteSpace=wrap;fontSize=13;strokeColor=#E45E2D;strokeWidth=1.5;rounded=0;startArrow=none;endArrow=block;endFill=1;exitX=1.004;exitY=0.5;exitPerimeter=0;entryX=-0.006;entryY=0.5;entryPerimeter=0;" parent="1" source="22" target="20" edge="1">
                        <mxGeometry width="100" height="100" relative="1" as="geometry">
                            <Array as="points"/>
                        </mxGeometry>
                    </mxCell>
                </UserObject>
                <UserObject label="New request for local help (s.o.s)" lucidchartObjectId="Vyl~TYozbl4g" id="20">
                    <mxCell style="html=1;overflow=block;blockSpacing=1;whiteSpace=wrap;fontSize=16.7;fontColor=#8b412b;spacing=9;strokeColor=#ef9c49;strokeOpacity=100;rounded=1;absoluteArcSize=1;arcSize=9;fillColor=#FFFADA;strokeWidth=1.5;" parent="1" vertex="1">
                        <mxGeometry x="525" y="810" width="120" height="90" as="geometry"/>
                    </mxCell>
                </UserObject>
                <UserObject label="SOLA PROJECT - SYSTEM REQUIREMENT" lucidchartObjectId="Vyl~o5rh.ytP" id="21">
                    <mxCell style="html=1;overflow=block;blockSpacing=1;whiteSpace=wrap;fontSize=16.7;fontColor=#8b412b;fontStyle=1;spacing=3.8;strokeOpacity=0;fillOpacity=0;rounded=1;absoluteArcSize=1;arcSize=9;fillColor=#ffffff;strokeWidth=2.3;" parent="1" vertex="1">
                        <mxGeometry x="240" y="570" width="420" height="48" as="geometry"/>
                    </mxCell>
                </UserObject>
                <UserObject label="Web Socket" lucidchartObjectId="MAl~RlX8e-w." id="22">
                    <mxCell style="html=1;overflow=block;blockSpacing=1;whiteSpace=wrap;fontSize=16.7;fontColor=#8b412b;spacing=9;strokeColor=#ef9c49;strokeOpacity=100;rounded=1;absoluteArcSize=1;arcSize=9;fillColor=#FFFADA;strokeWidth=1.5;" parent="1" vertex="1">
                        <mxGeometry x="300" y="818" width="165" height="75" as="geometry"/>
                    </mxCell>
                </UserObject>
                <UserObject label="Location Manager" lucidchartObjectId="FBl~ZbnjuVqY" id="23">
                    <mxCell style="html=1;overflow=block;blockSpacing=1;whiteSpace=wrap;fontSize=16.7;fontColor=#8b412b;spacing=9;strokeColor=#ef9c49;strokeOpacity=100;rounded=1;absoluteArcSize=1;arcSize=9;fillColor=#FFFADA;strokeWidth=1.5;" parent="1" vertex="1">
                        <mxGeometry x="300" y="681" width="165" height="75" as="geometry"/>
                    </mxCell>
                </UserObject>
                <UserObject label="Database" lucidchartObjectId="aDl~C694puJG" id="24">
                    <mxCell style="html=1;overflow=block;blockSpacing=1;whiteSpace=wrap;shape=cylinder3;size=4;anchorPointDirection=0;boundedLbl=1;fontSize=16.7;fontColor=#fffada;spacing=3.8;strokeColor=#fffada;strokeOpacity=100;fillOpacity=100;rounded=1;absoluteArcSize=1;arcSize=9;fillColor=#ef9c49;strokeWidth=1.5;" parent="1" vertex="1">
                        <mxGeometry x="705" y="673" width="90" height="90" as="geometry"/>
                    </mxCell>
                </UserObject>
                <UserObject label="Provide Local Information" lucidchartObjectId="zFl~m0UhgfRy" id="25">
                    <mxCell style="html=1;overflow=block;blockSpacing=1;whiteSpace=wrap;fontSize=16.7;fontColor=#8b412b;spacing=9;strokeColor=#ef9c49;strokeOpacity=100;rounded=1;absoluteArcSize=1;arcSize=9;fillColor=#FFFADA;strokeWidth=1.5;" parent="1" vertex="1">
                        <mxGeometry x="690" y="810" width="120" height="90" as="geometry"/>
                    </mxCell>
                </UserObject>
                <UserObject label="" lucidchartObjectId="FFl~SI3ptNiX" id="26">
                    <mxCell style="html=1;jettySize=18;whiteSpace=wrap;fontSize=13;strokeColor=#E45E2D;strokeWidth=1.5;rounded=0;startArrow=none;endArrow=block;endFill=1;exitX=1.006;exitY=0.5;exitPerimeter=0;entryX=-0.006;entryY=0.5;entryPerimeter=0;" parent="1" source="20" target="25" edge="1">
                        <mxGeometry width="100" height="100" relative="1" as="geometry">
                            <Array as="points"/>
                        </mxGeometry>
                    </mxCell>
                </UserObject>
                <UserObject label="" lucidchartObjectId="SHl~2E5ptac-" id="27">
                    <mxCell style="html=1;jettySize=18;whiteSpace=wrap;fontSize=13;strokeColor=#E45E2D;strokeWidth=1.5;rounded=0;startArrow=none;endArrow=block;endFill=1;exitX=0.5;exitY=-0.008;exitPerimeter=0;entryX=-0.008;entryY=0.335;entryPerimeter=0;" parent="1" source="20" target="24" edge="1">
                        <mxGeometry width="100" height="100" relative="1" as="geometry">
                            <Array as="points"/>
                        </mxGeometry>
                    </mxCell>
                </UserObject>
                <UserObject label="" lucidchartObjectId="XHl~CGy8Y7FV" id="28">
                    <mxCell style="html=1;jettySize=18;whiteSpace=wrap;fontSize=13;strokeColor=#E45E2D;strokeWidth=1.5;rounded=0;startArrow=none;endArrow=block;endFill=1;exitX=-0.008;exitY=0.5;exitPerimeter=0;entryX=0.616;entryY=-0.008;entryPerimeter=0;" parent="1" source="24" target="20" edge="1">
                        <mxGeometry width="100" height="100" relative="1" as="geometry">
                            <Array as="points"/>
                        </mxGeometry>
                    </mxCell>
                </UserObject>
                <UserObject label="" lucidchartObjectId="fIl~EInCrbh0" id="29">
                    <mxCell style="html=1;jettySize=18;whiteSpace=wrap;fontSize=13;strokeColor=#E45E2D;strokeWidth=1.5;rounded=0;startArrow=none;endArrow=block;endFill=1;exitX=0.425;exitY=-0.01;exitPerimeter=0;entryX=0.425;entryY=1.01;entryPerimeter=0;" parent="1" source="22" target="23" edge="1">
                        <mxGeometry width="100" height="100" relative="1" as="geometry">
                            <Array as="points"/>
                        </mxGeometry>
                    </mxCell>
                </UserObject>
                <UserObject label="" lucidchartObjectId="iIl~KW1qnd70" id="30">
                    <mxCell style="html=1;jettySize=18;whiteSpace=wrap;fontSize=13;strokeColor=#E45E2D;strokeWidth=1.5;rounded=0;startArrow=none;endArrow=block;endFill=1;exitX=0.557;exitY=1.01;exitPerimeter=0;entryX=0.557;entryY=-0.01;entryPerimeter=0;" parent="1" source="23" target="22" edge="1">
                        <mxGeometry width="100" height="100" relative="1" as="geometry">
                            <Array as="points"/>
                        </mxGeometry>
                    </mxCell>
                </UserObject>
                <UserObject label="Log in or Sign up" lucidchartObjectId="hMjcOs.8Xlwh" id="31">
                    <mxCell style="html=1;overflow=block;blockSpacing=1;whiteSpace=wrap;rounded=1;arcSize=50;fontSize=16.7;fontColor=#8b412b;spacing=3.8;strokeColor=#ef9c49;strokeOpacity=100;fillOpacity=100;fillColor=#fc9432;strokeWidth=1.5;" parent="1" vertex="1">
                        <mxGeometry x="90" y="1178" width="105" height="60" as="geometry"/>
                    </mxCell>
                </UserObject>
                <UserObject label="Alredy Signed up?" lucidchartObjectId="zNjcw.Sq6CH8" id="32">
                    <mxCell style="html=1;overflow=block;blockSpacing=1;whiteSpace=wrap;rhombus;fontSize=16.7;fontColor=#8b412b;spacing=3.8;strokeColor=#ef9c49;strokeOpacity=100;fillOpacity=100;rounded=1;absoluteArcSize=1;arcSize=9;fillColor=#ffdda6;strokeWidth=1.5;" parent="1" vertex="1">
                        <mxGeometry x="255" y="1155" width="158" height="105" as="geometry"/>
                    </mxCell>
                </UserObject>
                <UserObject label="Enter email address and password." lucidchartObjectId="8OjcDVLZbWbH" id="33">
                    <mxCell style="html=1;overflow=block;blockSpacing=1;whiteSpace=wrap;fontSize=16.7;fontColor=#8b412b;spacing=9;strokeColor=#ef9c49;strokeOpacity=100;rounded=1;absoluteArcSize=1;arcSize=9;fillColor=#FFFADA;strokeWidth=1.5;" parent="1" vertex="1">
                        <mxGeometry x="836" y="1163" width="120" height="90" as="geometry"/>
                    </mxCell>
                </UserObject>
                <UserObject label="Register name, email and password or sig up with Google Account." lucidchartObjectId="DPjc4Bhyv9ue" id="34">
                    <mxCell style="html=1;overflow=block;blockSpacing=1;whiteSpace=wrap;fontSize=16.7;fontColor=#8b412b;spacing=9;strokeColor=#ef9c49;strokeOpacity=100;rounded=1;absoluteArcSize=1;arcSize=9;fillColor=#FFFADA;strokeWidth=1.5;" parent="1" vertex="1">
                        <mxGeometry x="506" y="1253" width="240" height="79" as="geometry"/>
                    </mxCell>
                </UserObject>
                <UserObject label="" lucidchartObjectId="YQjcocfleuCC" id="35">
                    <mxCell style="html=1;jettySize=18;whiteSpace=wrap;fontSize=13.3;fontColor=#8b412b;fontStyle=1;strokeColor=#E45E2D;strokeWidth=1.5;rounded=0;startArrow=none;endArrow=block;endFill=1;exitX=0.5;exitY=0.994;exitPerimeter=0;entryX=-0.003;entryY=0.467;entryPerimeter=0;" parent="1" source="32" target="34" edge="1">
                        <mxGeometry width="100" height="100" relative="1" as="geometry">
                            <Array as="points">
                                <mxPoint x="334" y="1290"/>
                            </Array>
                        </mxGeometry>
                    </mxCell>
                </UserObject>
                <mxCell id="36" value="No" style="text;html=1;resizable=0;labelBackgroundColor=default;align=center;verticalAlign=middle;fontStyle=1;fontColor=#8b412b;fontSize=13.3;" parent="35" vertex="1">
                    <mxGeometry x="-0.10713569411957424" relative="1" as="geometry">
                        <mxPoint as="offset"/>
                    </mxGeometry>
                </mxCell>
                <UserObject label="" lucidchartObjectId="iRjcRfRFwep8" id="37">
                    <mxCell style="html=1;jettySize=18;whiteSpace=wrap;fontSize=13;strokeColor=#E45E2D;strokeWidth=1.5;rounded=0;startArrow=none;endArrow=block;endFill=1;exitX=1.007;exitY=0.5;exitPerimeter=0;entryX=0.011;entryY=0.5;entryPerimeter=0;" parent="1" source="31" target="32" edge="1">
                        <mxGeometry width="100" height="100" relative="1" as="geometry">
                            <Array as="points"/>
                        </mxGeometry>
                    </mxCell>
                </UserObject>
                <UserObject label="" lucidchartObjectId="bSjcgXdayImF" id="38">
                    <mxCell style="html=1;jettySize=18;whiteSpace=wrap;fontSize=13;strokeColor=#E45E2D;strokeWidth=1.5;rounded=0;startArrow=none;endArrow=block;endFill=1;exitX=1.006;exitY=0.5;exitPerimeter=0;entryX=-0.006;entryY=0.5;entryPerimeter=0;" parent="1" source="33" target="39" edge="1">
                        <mxGeometry width="100" height="100" relative="1" as="geometry">
                            <Array as="points"/>
                        </mxGeometry>
                    </mxCell>
                </UserObject>
                <UserObject label="Embark" lucidchartObjectId="eSjcgI-uLEdR" id="39">
                    <mxCell style="html=1;overflow=block;blockSpacing=1;whiteSpace=wrap;fontSize=16.7;fontColor=#8b412b;spacing=9;strokeColor=#ef9c49;strokeOpacity=100;rounded=1;absoluteArcSize=1;arcSize=9;fillColor=#FFFADA;strokeWidth=1.5;" parent="1" vertex="1">
                        <mxGeometry x="1035" y="1163" width="120" height="90" as="geometry"/>
                    </mxCell>
                </UserObject>
                <UserObject label="SOLA PROJECT - LOG IN OR SIGN UP" lucidchartObjectId="GSjcKm9ZOaaV" id="40">
                    <mxCell style="html=1;overflow=block;blockSpacing=1;whiteSpace=wrap;fontSize=16.7;fontColor=#8b412b;fontStyle=1;spacing=3.8;strokeOpacity=0;fillOpacity=0;rounded=1;absoluteArcSize=1;arcSize=9;fillColor=#ffffff;strokeWidth=2.3;" parent="1" vertex="1">
                        <mxGeometry x="416" y="1035" width="420" height="48" as="geometry"/>
                    </mxCell>
                </UserObject>
                <UserObject label="" lucidchartObjectId="vVjcCAkKl3xs" id="41">
                    <mxCell style="html=1;jettySize=18;whiteSpace=wrap;fontSize=13;strokeColor=#E45E2D;strokeWidth=1.5;rounded=0;startArrow=none;endArrow=block;endFill=1;exitX=1.003;exitY=0.469;exitPerimeter=0;entryX=0.5;entryY=1.008;entryPerimeter=0;" parent="1" source="34" target="39" edge="1">
                        <mxGeometry width="100" height="100" relative="1" as="geometry">
                            <Array as="points">
                                <mxPoint x="1095" y="1290"/>
                            </Array>
                        </mxGeometry>
                    </mxCell>
                </UserObject>
                <UserObject label="Log in" lucidchartObjectId="VyycKUx-6-It" id="42">
                    <mxCell style="html=1;overflow=block;blockSpacing=1;whiteSpace=wrap;rounded=1;arcSize=50;fontSize=16.7;fontColor=#8b412b;spacing=3.8;strokeColor=#ef9c49;strokeOpacity=100;fillOpacity=100;fillColor=#fc9432;strokeWidth=1.5;" parent="1" vertex="1">
                        <mxGeometry x="90" y="143" width="120" height="60" as="geometry"/>
                    </mxCell>
                </UserObject>
                <UserObject label="" lucidchartObjectId="WJyc~6uVqdh." id="43">
                    <mxCell style="html=1;jettySize=18;whiteSpace=wrap;fontSize=13;strokeColor=#E45E2D;strokeWidth=1.5;rounded=0;startArrow=none;endArrow=block;endFill=1;exitX=0.5;exitY=0.006;exitPerimeter=0;entryX=0.5;entryY=-0.008;entryPerimeter=0;" parent="1" source="32" target="33" edge="1">
                        <mxGeometry width="100" height="100" relative="1" as="geometry">
                            <Array as="points">
                                <mxPoint x="334" y="1125"/>
                                <mxPoint x="896" y="1125"/>
                            </Array>
                        </mxGeometry>
                    </mxCell>
                </UserObject>
                <mxCell id="44" value="Yes" style="text;html=1;resizable=0;labelBackgroundColor=default;align=center;verticalAlign=middle;fontColor=#8b412b;fontSize=13;" parent="43" vertex="1">
                    <mxGeometry relative="1" as="geometry"/>
                </mxCell>
                <mxCell id="47" value="" style="rounded=1;whiteSpace=wrap;html=1;fillColor=#dae8fc;strokeColor=#6c8ebf;" vertex="1" parent="1">
                    <mxGeometry x="340" y="1450" width="310" height="250" as="geometry"/>
                </mxCell>
                <mxCell id="48" value="&lt;div&gt;&lt;span style=&quot;font-size: 17px&quot;&gt;&lt;font face=&quot;helvetica&quot;&gt;IONIC&amp;nbsp;&lt;/font&gt;&lt;/span&gt;&lt;span style=&quot;font-family: &amp;#34;helvetica&amp;#34; ; font-size: 17px&quot;&gt;FRAMEWORK&lt;/span&gt;&lt;/div&gt;" style="text;whiteSpace=wrap;html=1;align=center;fontColor=#303078;" vertex="1" parent="1">
                    <mxGeometry x="405" y="1470" width="180" height="30" as="geometry"/>
                </mxCell>
                <mxCell id="50" value="" style="rounded=1;whiteSpace=wrap;html=1;fillColor=#e1d5e7;strokeColor=#9673a6;" vertex="1" parent="1">
                    <mxGeometry x="675" y="1450" width="120" height="250" as="geometry"/>
                </mxCell>
                <mxCell id="45" value="" style="rounded=1;whiteSpace=wrap;html=1;fillColor=#f8cecc;strokeColor=#b85450;" vertex="1" parent="1">
                    <mxGeometry x="370" y="1520" width="250" height="160" as="geometry"/>
                </mxCell>
                <mxCell id="46" value="&lt;div style=&quot;&quot;&gt;&lt;span style=&quot;font-size: 17px&quot;&gt;&lt;font face=&quot;helvetica&quot;&gt;ANGULAR&lt;/font&gt;&lt;/span&gt;&lt;/div&gt;" style="text;whiteSpace=wrap;html=1;fontColor=#C75050;align=center;verticalAlign=middle;" vertex="1" parent="1">
                    <mxGeometry x="450" y="1540" width="90" height="30" as="geometry"/>
                </mxCell>
                <mxCell id="53" value="&lt;font style=&quot;font-size: 15px&quot; color=&quot;#660066&quot;&gt;HTML&lt;/font&gt;" style="shape=note;whiteSpace=wrap;html=1;backgroundOutline=1;darkOpacity=0.05;size=20;fillColor=#e1d5e7;strokeColor=#9673a6;" vertex="1" parent="1">
                    <mxGeometry x="385" y="1590" width="65" height="70" as="geometry"/>
                </mxCell>
                <mxCell id="54" value="&lt;font style=&quot;font-size: 15px&quot; color=&quot;#660066&quot;&gt;CSS&lt;/font&gt;" style="shape=note;whiteSpace=wrap;html=1;backgroundOutline=1;darkOpacity=0.05;size=20;fillColor=#e1d5e7;strokeColor=#9673a6;" vertex="1" parent="1">
                    <mxGeometry x="462.5" y="1590" width="65" height="70" as="geometry"/>
                </mxCell>
                <mxCell id="55" value="&lt;font style=&quot;font-size: 15px&quot; color=&quot;#660066&quot;&gt;JS&lt;/font&gt;" style="shape=note;whiteSpace=wrap;html=1;backgroundOutline=1;darkOpacity=0.05;size=20;fillColor=#e1d5e7;strokeColor=#9673a6;" vertex="1" parent="1">
                    <mxGeometry x="540" y="1590" width="65" height="70" as="geometry"/>
                </mxCell>
                <mxCell id="56" value="&lt;font face=&quot;helvetica&quot;&gt;&lt;span style=&quot;font-size: 17px&quot;&gt;CORDOVA&lt;/span&gt;&lt;/font&gt;" style="text;whiteSpace=wrap;html=1;fontColor=#660066;align=center;verticalAlign=middle;" vertex="1" parent="1">
                    <mxGeometry x="690" y="1560" width="90" height="30" as="geometry"/>
                </mxCell>
                <mxCell id="57" value="" style="rounded=1;whiteSpace=wrap;html=1;fillColor=#d5e8d4;strokeColor=#82b366;" vertex="1" parent="1">
                    <mxGeometry x="820" y="1450" width="120" height="250" as="geometry"/>
                </mxCell>
                <mxCell id="59" value="&lt;font style=&quot;font-size: 14px&quot;&gt;ANDROID&lt;/font&gt;" style="rounded=1;whiteSpace=wrap;html=1;fillColor=#d5e8d4;strokeColor=#82b366;fontColor=#003300;" vertex="1" parent="1">
                    <mxGeometry x="830" y="1480" width="100" height="80" as="geometry"/>
                </mxCell>
                <mxCell id="60" value="&lt;font color=&quot;#003300&quot; style=&quot;font-size: 14px&quot;&gt;iOS&lt;/font&gt;" style="rounded=1;whiteSpace=wrap;html=1;fillColor=#d5e8d4;strokeColor=#82b366;" vertex="1" parent="1">
                    <mxGeometry x="830" y="1590" width="100" height="80" as="geometry"/>
                </mxCell>
                <mxCell id="61" value="&lt;font color=&quot;#994c00&quot;&gt;DATABASE&lt;/font&gt;" style="rounded=1;whiteSpace=wrap;html=1;fontSize=14;fillColor=#ffe6cc;strokeColor=#d79b00;" vertex="1" parent="1">
                    <mxGeometry x="345" y="1780" width="595" height="40" as="geometry"/>
                </mxCell>
                <mxCell id="63" value="&lt;font color=&quot;#994c00&quot;&gt;FILE SYSTEM&lt;/font&gt;" style="rounded=1;whiteSpace=wrap;html=1;fontSize=14;fillColor=#ffe6cc;strokeColor=#d79b00;" vertex="1" parent="1">
                    <mxGeometry x="345" y="1720" width="595" height="40" as="geometry"/>
                </mxCell>
            </root>
        </mxGraphModel>
    </diagram>
</mxfile>